{
  "source": "C:\\Users\\Peter\\Desktop\\stuff\\MIUN\\quantitative_research\\video_compression\\videos\\BVI-HD\\BVI-HD_CDVL_videos\\ORIG\\Boxing_1920x1080_30fps.mp4",
  "output": "C:\\Users\\Peter\\Desktop\\stuff\\MIUN\\quantitative_research\\video_compression\\compressed_videos\\BVI-HD\\av1\\8\\Boxing_1920x1080_30fps_av1.mkv",
  "codec": "av1",
  "ok": "Input #0, mov,mp4,m4a,3gp,3g2,mj2, from 'C:\\Users\\Peter\\Desktop\\stuff\\MIUN\\quantitative_research\\video_compression\\videos\\BVI-HD\\BVI-HD_CDVL_videos\\ORIG\\Boxing_1920x1080_30fps.mp4':\n  Metadata:\n    major_brand     : isom\n    minor_version   : 512\n    compatible_brands: isomiso2avc1mp41\n    encoder         : Lavf54.28.101\n  Duration: 00:00:05.00, start: 0.000000, bitrate: 238363 kb/s\n  Stream #0:0[0x1](und): Video: h264 (High 4:4:4 Predictive) (avc1 / 0x31637661), yuv420p(progressive), 1920x1080, 238359 kb/s, 30 fps, 30 tbr, 30 tbn (default)\n    Metadata:\n      handler_name    : VideoHandler\n      vendor_id       : [0][0][0][0]\n[out#0/matroska @ 000001efc8d29b00] Codec AVOption b:a (set bitrate (in bits/s)) has not been used for any stream. The most likely reason is either wrong type (e.g. a video option with no video streams) or that it is a private option of some decoder which was not actually used for any stream.\nStream mapping:\n  Stream #0:0 -> #0:0 (h264 (native) -> av1 (libsvtav1))\nPress [q] to stop, [?] for help\nSvt[info]: -------------------------------------------\nSvt[info]: SVT [version]:\tSVT-AV1 Encoder Lib v3.1.0-19-g6ecfe8ec\nSvt[info]: SVT [build]  :\tGCC 15.2.0\t 64 bit\nSvt[info]: LIB Build date: Aug 17 2025 11:37:13\nSvt[info]: -------------------------------------------\nSvt[info]: Level of Parallelism: 5\nSvt[info]: Number of PPCS 93\nSvt[info]: [asm level on system : up to avx2]\nSvt[info]: [asm level selected : up to avx2]\nSvt[info]: -------------------------------------------\nSvt[info]: SVT [config]: main profile\ttier (auto)\tlevel (auto)\nSvt[info]: SVT [config]: width / height / fps numerator / fps denominator \t\t: 1920 / 1080 / 30 / 1\nSvt[info]: SVT [config]: bit-depth / color format \t\t\t\t\t: 8 / YUV420\nSvt[info]: SVT [config]: preset / tune / pred struct \t\t\t\t\t: 4 / PSNR / random access\nSvt[info]: SVT [config]: gop size / mini-gop size / key-frame type \t\t\t: 161 / 16 / key frame\nSvt[info]: SVT [config]: BRC mode / target bitrate (kbps)\t\t\t\t: VBR / 8000 \nSvt[info]: SVT [config]: AQ mode / Variance Boost \t\t\t\t\t: 2 / 0\nSvt[info]: SVT [config]: sharpness / luminance-based QP bias \t\t\t\t: 0 / 0\nSvt[info]: SVT [config]: QP scale compress strength \t\t\t\t\t: 0\nSvt[info]: -------------------------------------------\nOutput #0, matroska, to 'C:\\Users\\Peter\\Desktop\\stuff\\MIUN\\quantitative_research\\video_compression\\compressed_videos\\BVI-HD\\av1\\8\\Boxing_1920x1080_30fps_av1.mkv':\n  Metadata:\n    major_brand     : isom\n    minor_version   : 512\n    compatible_brands: isomiso2avc1mp41\n    encoder         : Lavf62.3.100\n  Stream #0:0(und): Video: av1 (AV01 / 0x31305641), yuv420p(tv, progressive), 1920x1080, q=2-31, 8000 kb/s, 30 fps, 1k tbn (default)\n    Metadata:\n      encoder         : Lavc62.11.100 libsvtav1\n      handler_name    : VideoHandler\n      vendor_id       : [0][0][0][0]\n    Side data:\n      cpb: bitrate max/min/avg: 0/0/8000000 buffer size: 8000000 vbv_delay: N/A\nframe=    0 fps=0.0 q=0.0 size=       0KiB time=N/A bitrate=N/A speed=N/A elapsed=0:00:01.10    \nframe=    0 fps=0.0 q=0.0 size=       0KiB time=N/A bitrate=N/A speed=N/A elapsed=0:00:01.68    \nframe=    0 fps=0.0 q=0.0 size=       0KiB time=N/A bitrate=N/A speed=N/A elapsed=0:00:02.24    \nframe=    0 fps=0.0 q=0.0 size=       0KiB time=N/A bitrate=N/A speed=N/A elapsed=0:00:02.83    \nframe=    1 fps=0.3 q=6.0 size=       1KiB time=00:00:00.00 bitrate=N/A speed=   0x elapsed=0:00:03.42    \nframe=    1 fps=0.3 q=6.0 size=       1KiB time=00:00:00.00 bitrate=N/A speed=   0x elapsed=0:00:03.99    \nframe=    1 fps=0.2 q=6.0 size=       1KiB time=00:00:00.00 bitrate=N/A speed=   0x elapsed=0:00:04.51    \nframe=    4 fps=0.8 q=26.0 size=       1KiB time=00:00:00.10 bitrate=  57.0kbits/s speed=0.0199x elapsed=0:00:05.03    \nframe=    7 fps=1.3 q=22.0 size=       1KiB time=00:00:00.20 bitrate=  28.5kbits/s speed=0.0361x elapsed=0:00:05.54    \nframe=    9 fps=1.5 q=18.0 size=       1KiB time=00:00:00.26 bitrate=  21.4kbits/s speed=0.044x elapsed=0:00:06.06    \nframe=   12 fps=1.8 q=18.0 size=       1KiB time=00:00:00.36 bitrate=  15.6kbits/s speed=0.0553x elapsed=0:00:06.62    \nframe=   18 fps=2.5 q=18.0 size=       1KiB time=00:00:00.53 bitrate=  10.7kbits/s speed=0.0744x elapsed=0:00:07.17    \nframe=   21 fps=2.7 q=18.0 size=       1KiB time=00:00:00.66 bitrate=   8.6kbits/s speed=0.0863x elapsed=0:00:07.72    \nframe=   23 fps=2.8 q=18.0 size=       1KiB time=00:00:00.73 bitrate=   7.8kbits/s speed=0.0884x elapsed=0:00:08.29    \nframe=   27 fps=3.1 q=18.0 size=       1KiB time=00:00:00.86 bitrate=   6.6kbits/s speed=0.098x elapsed=0:00:08.83    \nframe=   30 fps=3.2 q=18.0 size=       1KiB time=00:00:00.96 bitrate=   5.9kbits/s speed=0.103x elapsed=0:00:09.42    \nframe=   35 fps=3.5 q=20.0 size=       1KiB time=00:00:01.13 bitrate=   5.0kbits/s speed=0.114x elapsed=0:00:09.97    \nframe=   38 fps=3.6 q=16.0 size=       1KiB time=00:00:01.23 bitrate=   4.6kbits/s speed=0.117x elapsed=0:00:10.50    \nframe=   42 fps=3.8 q=16.0 size=       1KiB time=00:00:01.33 bitrate=   4.3kbits/s speed=0.121x elapsed=0:00:11.04    \nframe=   44 fps=3.8 q=16.0 size=       1KiB time=00:00:01.43 bitrate=   4.0kbits/s speed=0.123x elapsed=0:00:11.60    \nframe=   50 fps=4.1 q=19.0 size=       1KiB time=00:00:01.63 bitrate=   3.5kbits/s speed=0.134x elapsed=0:00:12.18    \nframe=   55 fps=4.3 q=18.0 size=       1KiB time=00:00:01.80 bitrate=   3.2kbits/s speed=0.142x elapsed=0:00:12.69    \nframe=   57 fps=4.3 q=9.0 size=       1KiB time=00:00:01.86 bitrate=   3.1kbits/s speed=0.141x elapsed=0:00:13.22    \nframe=   61 fps=4.4 q=17.0 size=       1KiB time=00:00:02.00 bitrate=   2.9kbits/s speed=0.145x elapsed=0:00:13.77    \nframe=   65 fps=4.5 q=1.0 size=       1KiB time=00:00:02.13 bitrate=   2.7kbits/s speed=0.149x elapsed=0:00:14.33    \nframe=   69 fps=4.6 q=17.0 size=       1KiB time=00:00:02.26 bitrate=   2.5kbits/s speed=0.153x elapsed=0:00:14.84    \nframe=   73 fps=4.7 q=10.0 size=       1KiB time=00:00:02.40 bitrate=   2.4kbits/s speed=0.156x elapsed=0:00:15.40    \nframe=   75 fps=4.7 q=19.0 size=       1KiB time=00:00:02.46 bitrate=   2.3kbits/s speed=0.155x elapsed=0:00:15.93    \nframe=   79 fps=4.8 q=19.0 size=       1KiB time=00:00:02.60 bitrate=   2.2kbits/s speed=0.157x elapsed=0:00:16.51    \nframe=   85 fps=5.0 q=18.0 size=       1KiB time=00:00:02.80 bitrate=   2.0kbits/s speed=0.164x elapsed=0:00:17.04    \nframe=   89 fps=5.1 q=11.0 size=       1KiB time=00:00:02.93 bitrate=   1.9kbits/s speed=0.167x elapsed=0:00:17.56    \nframe=   91 fps=5.0 q=19.0 size=       1KiB time=00:00:03.00 bitrate=   1.9kbits/s speed=0.166x elapsed=0:00:18.09    \nframe=   93 fps=5.0 q=17.0 size=       1KiB time=00:00:03.06 bitrate=   1.9kbits/s speed=0.164x elapsed=0:00:18.67    \nframe=   99 fps=5.1 q=20.0 size=       1KiB time=00:00:03.26 bitrate=   1.7kbits/s speed=0.17x elapsed=0:00:19.22    \nframe=  105 fps=5.3 q=12.0 size=       1KiB time=00:00:03.46 bitrate=   1.6kbits/s speed=0.175x elapsed=0:00:19.76    \nframe=  107 fps=5.3 q=19.0 size=       1KiB time=00:00:03.46 bitrate=   1.6kbits/s speed=0.171x elapsed=0:00:20.32    \nframe=  111 fps=5.3 q=19.0 size=       1KiB time=00:00:03.60 bitrate=   1.6kbits/s speed=0.172x elapsed=0:00:20.91    \nframe=  113 fps=5.3 q=5.0 size=       1KiB time=00:00:03.73 bitrate=   1.5kbits/s speed=0.174x elapsed=0:00:21.44    \nframe=  119 fps=5.4 q=19.0 size=       1KiB time=00:00:03.93 bitrate=   1.5kbits/s speed=0.179x elapsed=0:00:21.98    \nframe=  121 fps=5.4 q=12.0 size=       1KiB time=00:00:04.00 bitrate=   1.4kbits/s speed=0.178x elapsed=0:00:22.50    \nframe=  125 fps=5.4 q=17.0 size=       1KiB time=00:00:04.13 bitrate=   1.4kbits/s speed=0.18x elapsed=0:00:23.02    \nframe=  129 fps=5.5 q=5.0 size=       1KiB time=00:00:04.26 bitrate=   1.3kbits/s speed=0.181x elapsed=0:00:23.55    \nframe=  133 fps=5.5 q=23.0 size=       1KiB time=00:00:04.40 bitrate=   1.3kbits/s speed=0.182x elapsed=0:00:24.12    \nframe=  137 fps=5.5 q=17.0 size=       1KiB time=00:00:04.53 bitrate=   1.3kbits/s speed=0.183x elapsed=0:00:24.73    \nframe=  137 fps=5.4 q=17.0 size=       1KiB time=00:00:04.53 bitrate=   1.3kbits/s speed=0.179x elapsed=0:00:25.31    \nframe=  141 fps=5.4 q=23.0 size=       1KiB time=00:00:04.66 bitrate=   1.2kbits/s speed=0.18x elapsed=0:00:25.87    \n[out#0/matroska @ 000001efc8d29b00] video:4576KiB audio:0KiB subtitle:0KiB other streams:0KiB global headers:0KiB muxing overhead: 0.032014%\nframe=  150 fps=5.7 q=26.0 Lsize=    4577KiB time=00:00:04.96 bitrate=7549.5kbits/s speed=0.189x elapsed=0:00:26.32    \n",
  "seconds": 27.529603242874146,
  "probe_out": {}
}